#!OML:ASF X:\für Bonn\!DataBase\2005_08_11_Bastian_Final\c3d\Bastian.ASF
:FULLY-SPECIFIED
:DEGREES
91
root -1.44207 10.5432 2.37197 165.944 -3.70154 -174.382
lowerback 36.6343 0.242872 2.70332
upperback 7.16614 -0.983293 2.12564
thorax -10.2052 -1.5928 1.43624
lowerneck -9.09359 -4.60885 -5.29601
upperneck -12.3774 -6.47573 13.0458
head -1.53714 -3.95122 4.73908
rclavicle 6.16232e-015 -3.37934e-015
rhumerus 73.1473 8.4309 20.2088
rradius 40.6515
rwrist -70.4791
rhand -50.6817 -7.47728
rfingers 7.12502
rthumb -23.2432 -36.0945
lclavicle 6.16232e-015 -3.37934e-015
lhumerus 71.0942 -19.3883 -32.794
lradius 32.6656
lwrist 31.7494
lhand -48.5427 26.3994
lfingers 7.12502
lthumb -21.1898 55.2613
rfemur -48.213 -6.26684 29.3053
rtibia 124.235
rfoot -42.5355 -12.3658
rtoes -8.74248
lfemur -48.4386 11.5073 -11.6747
ltibia 127.209
lfoot -41.4855 -15.8391
ltoes -7.16478
92
root -1.44424 10.7756 2.38927 166.359 -3.80287 -174.398
lowerback 36.3757 0.198234 2.66816
upperback 7.06746 -1.00272 2.11476
thorax -10.2238 -1.57668 1.44377
lowerneck -9.30626 -4.57933 -5.32265
upperneck -12.3307 -6.44364 13.1379
head -1.48736 -3.93532 4.76564
rclavicle -1.78906e-015 6.95746e-015
rhumerus 73.2436 8.43314 19.941
rradius 40.4678
rwrist -69.868
rhand -50.4283 -7.87418
rfingers 7.12502
rthumb -23.0001 -36.5219
lclavicle -1.78906e-015 6.95746e-015
lhumerus 71.0448 -19.3217 -32.5697
lradius 32.5862
lwrist 31.7165
lhand -48.6031 25.9563
lfingers 7.12502
lthumb -21.2478 54.8117
rfemur -47.4512 -5.92362 29.2033
rtibia 121.947
rfoot -42.0493 -12.4355
rtoes -8.80471
lfemur -47.8259 10.4122 -12.0771
ltibia 124.974
lfoot -41.0538 -15.3634
ltoes -6.77551
93
root -1.44687 11.0077 2.4047 166.808 -3.89671 -174.386
lowerback 36.0715 0.158346 2.65438
upperback 6.96044 -1.00234 2.12097
thorax -10.234 -1.54998 1.44922
lowerneck -9.5485 -4.56264 -5.35537
upperneck -12.2547 -6.42789 13.2107
head -1.42363 -3.92365 4.78515
rclavicle 1.2424e-015 -1.37161e-014
rhumerus 73.319 8.41601 19.7643
rradius 40.2948
rwrist -69.3039
rhand -50.2067 -8.25009
rfingers 7.12502
rthumb -22.7875 -36.9242
lclavicle 1.2424e-015 -1.37161e-014
lhumerus 71.0129 -19.2155 -32.3556
lradius 32.5151
lwrist 31.6141
lhand -48.6567 25.5998
lfingers 7.12502
lthumb -21.2993 54.4494
rfemur -46.6915 -5.61337 29.1404
rtibia 119.622
rfoot -41.648 -12.4843
rtoes -8.87821
lfemur -47.1974 9.46422 -12.4036
ltibia 122.705
lfoot -40.714 -14.9017
ltoes -6.61988
94
root -1.44986 11.2411 2.41779 167.276 -3.99581 -174.381
lowerback 35.6808 0.113688 2.6354
upperback 6.87449 -1.01441 2.12038
thorax -10.1876 -1.52862 1.45195
lowerneck -9.8022 -4.54247 -5.36124
upperneck -12.2188 -6.41428 13.2787
head -1.3711 -3.91796 4.7998
rclavicle -1.30701e-014 4.4329e-014
rhumerus 73.3905 8.36319 19.5849
rradius 40.1277
rwrist -68.7664
rhand -50.0734 -8.60875
rfingers 7.12502
rthumb -22.6596 -37.2985
lclavicle -1.30701e-014 4.4329e-014
lhumerus 70.9811 -19.0846 -32.4241
lradius 32.489
lwrist 31.5512
lhand -48.7485 25.3699
lfingers 7.12502
lthumb -21.3875 54.2095
rfemur -45.9116 -5.34016 29.0571
rtibia 117.25
rfoot -41.2634 -12.5479
rtoes -8.92134
lfemur -46.5416 8.61027 -12.715
ltibia 120.388
lfoot -40.474 -14.3304
ltoes -6.75908
95
root -1.45193 11.4785 2.42833 167.755 -4.09395 -174.372
lowerback 35.1334 0.0721313 2.60336
upperback 6.86845 -1.02818 2.13051
thorax -10.1122 -1.5051 1.45638
lowerneck -10.0538 -4.52605 -5.41692
upperneck -12.1307 -6.39674 13.3861
head -1.30013 -3.90448 4.83333
rclavicle 2.08724e-015 -3.1408e-014
rhumerus 73.4538 8.32269 19.4047
rradius 39.9889
rwrist -68.3282
rhand -50.0141 -8.8394
rfingers 7.12502
rthumb -22.6026 -37.5361
lclavicle 2.08724e-015 -3.1408e-014
lhumerus 70.9492 -18.9469 -32.5015
lradius 32.4686
lwrist 31.331
lhand -48.7811 25.3179
lfingers 7.12502
lthumb -21.4188 54.1539
rfemur -45.1172 -5.08187 28.9914
rtibia 114.813
rfoot -40.8924 -12.6049
rtoes -8.87234
lfemur -45.8175 7.83076 -12.9772
ltibia 117.978
lfoot -40.3207 -13.8219
ltoes -6.80795
96
root -1.4546 11.721 2.43759 168.265 -4.18291 -174.366
lowerback 34.6014 0.0323045 2.57149
upperback 6.78964 -1.03646 2.13228
thorax -10.0023 -1.4787 1.46227
lowerneck -10.3288 -4.51122 -5.42716
upperneck -12.0465 -6.3888 13.4578
head -1.22921 -3.89713 4.84778
rclavicle -1.0635e-014 -7.7526e-015
rhumerus 73.5219 8.24738 19.1861
rradius 39.8542
rwrist -68.0719
rhand -50.0289 -8.89615
rfingers 7.12502
rthumb -22.6169 -37.5911
lclavicle -1.0635e-014 -7.7526e-015
lhumerus 70.9105 -18.7727 -32.6165
lradius 32.4275
lwrist 31.1146
lhand -48.8402 25.2663
lfingers 7.12502
lthumb -21.4756 54.0959
rfemur -44.3197 -4.83633 28.9161
rtibia 112.305
rfoot -40.5782 -12.645
rtoes -8.93598
lfemur -45.0593 7.14597 -13.2259
ltibia 115.466
lfoot -40.2786 -13.2345
ltoes -7.04771
97
root -1.45788 11.9686 2.44475 168.77 -4.2696 -174.338
lowerback 34.0488 -0.01943 2.57877
upperback 6.71142 -1.04736 2.13481
thorax -9.88061 -1.45462 1.44859
lowerneck -10.5889 -4.5103 -5.48285
upperneck -11.962 -6.39306 13.5616
head -1.15638 -3.89435 4.87949
rclavicle 1.4064e-014 -3.97569e-015
rhumerus 73.5605 8.17318 18.8592
rradius 39.7441
rwrist -67.8951
rhand -50.0751 -8.82116
rfingers 7.12502
rthumb -22.6612 -37.5107
lclavicle 1.4064e-014 -3.97569e-015
lhumerus 70.8703 -18.5771 -32.7472
lradius 32.3993
lwrist 30.9165
lhand -48.8842 25.2681
lfingers 7.12502
lthumb -21.5178 54.0929
rfemur -43.4635 -4.60813 28.8578
rtibia 109.73
rfoot -40.362 -12.6222
rtoes -8.80221
lfemur -44.1881 6.48571 -13.4164
ltibia 112.831
lfoot -40.2914 -12.7047
ltoes -7.24378
98
root -1.46062 12.2147 2.45106 169.292 -4.35188 -174.33
lowerback 33.4915 -0.059056 2.53704
upperback 6.62284 -1.05774 2.13639
thorax -9.76599 -1.42836 1.4599
lowerneck -10.8221 -4.49257 -5.4973
upperneck -11.9168 -6.3811 13.6478
head -1.10313 -3.88843 4.90168
rclavicle 3.47873e-016 -1.53064e-014
rhumerus 73.625 8.1103 18.6041
rradius 39.6915
rwrist -68.0489
rhand -50.2322 -8.53882
rfingers 7.12502
rthumb -22.812 -37.2099
lclavicle 3.47873e-016 -1.53064e-014
lhumerus 70.7901 -18.3764 -32.7128
lradius 32.3383
lwrist 30.6204
lhand -48.9183 25.2007
lfingers 7.12502
lthumb -21.5505 54.0217
rfemur -42.6314 -4.38512 28.7837
rtibia 107.149
rfoot -40.2073 -12.5863
rtoes -8.67086
lfemur -43.3048 5.90536 -13.6092
ltibia 110.133
lfoot -40.2332 -12.2273
ltoes -7.18539
99
root -1.46434 12.4586 2.45515 169.813 -4.44532 -174.323
lowerback 32.9324 -0.107056 2.51203
upperback 6.53036 -1.07372 2.13138
thorax -9.65176 -1.40512 1.45748
lowerneck -11.0133 -4.48551 -5.54507
upperneck -11.9064 -6.37853 13.7589
head -1.06351 -3.88903 4.93879
rclavicle 4.17448e-015 3.1408e-014
rhumerus 73.6828 8.09914 18.3915
rradius 39.7175
rwrist -68.4677
rhand -50.4267 -8.09996
rfingers 7.12502
rthumb -22.9986 -36.7479
lclavicle 4.17448e-015 3.1408e-014
lhumerus 70.7134 -18.196 -32.3374
lradius 32.18
lwrist 30.0682
lhand -48.9332 25.1866
lfingers 7.12502
lthumb -21.5649 54.0059
rfemur -41.7972 -4.20278 28.6872
rtibia 104.576
rfoot -40.0736 -12.5288
rtoes -8.69008
lfemur -42.3707 5.33309 -13.7829
ltibia 107.405
lfoot -40.1857 -11.7966
ltoes -6.97424
100
root -1.46797 12.6983 2.45736 170.342 -4.5282 -174.318
lowerback 32.3763 -0.130189 2.42451
upperback 6.43097 -1.07648 2.14464
thorax -9.54341 -1.37462 1.50333
lowerneck -11.2024 -4.46591 -5.48937
upperneck -11.8795 -6.3717 13.7938
head -1.02708 -3.8887 4.93525
rclavicle -3.22528e-014 2.20651e-014
rhumerus 73.7225 8.10516 18.3862
rradius 39.856
rwrist -69.1366
rhand -50.7226 -7.57082
rfingers 7.12502
rthumb -23.2825 -36.1831
lclavicle -3.22528e-014 2.20651e-014
lhumerus 70.6592 -18.0358 -32.047
lradius 32.0588
lwrist 29.737
lhand -48.9899 25.1286
lfingers 7.12502
lthumb -21.6194 53.9417
rfemur -40.9693 -4.07335 28.5854
rtibia 102.022
rfoot -39.9054 -12.3891
rtoes -8.63606
lfemur -41.4092 4.84438 -13.9369
ltibia 104.669
lfoot -40.1228 -11.3726
ltoes -6.91152
101
root -1.47211 12.9347 2.45801 170.858 -4.6075 -174.292
lowerback 31.5925 -0.15779 2.36036
upperback 6.74695 -1.08996 2.10332
thorax -9.62762 -1.33354 1.57889
lowerneck -11.3509 -4.45432 -5.45056
upperneck -11.8709 -6.37238 13.8596
head -0.999483 -3.89376 4.94515
rclavicle -4.32357e-015 6.16232e-015
rhumerus 73.7573 8.11973 18.4344
rradius 40.0334
rwrist -69.9576
rhand -50.9724 -7.01515
rfingers 7.12502
rthumb -23.5221 -35.5969
lclavicle -4.32357e-015 6.16232e-015
lhumerus 70.6425 -17.871 -31.9814
lradius 32.0698
lwrist 29.6988
lhand -49.0689 25.1682
lfingers 7.12502
lthumb -21.6951 53.9725
rfemur -40.1398 -3.96045 28.4974
rtibia 99.4851
rfoot -39.6892 -12.1099
rtoes -8.20814
lfemur -40.4445 4.37034 -14.0406
ltibia 101.948
lfoot -39.9932 -11.0522
ltoes -6.63654
102
root -1.47587 13.1701 2.45658 171.385 -4.68515 -174.267
lowerback 31.019 -0.198444 2.32131
upperback 6.61205 -1.09688 2.10285
thorax -9.50887 -1.30565 1.58433
lowerneck -11.419 -4.44304 -5.43437
upperneck -11.8936 -6.36707 13.9441
head -0.992356 -3.89768 4.96769
rclavicle 8.59744e-015 -7.15625e-015
rhumerus 73.777 8.14793 18.6072
rradius 40.2442
rwrist -70.774
rhand -51.2112 -6.55133
rfingers 7.12502
rthumb -23.7512 -35.1035
lclavicle 8.59744e-015 -7.15625e-015
lhumerus 70.7011 -17.7209 -32.2042
lradius 32.1637
lwrist 29.9713
lhand -49.1624 25.2144
lfingers 7.12502
lthumb -21.785 54.0083
rfemur -39.3326 -3.87749 28.4109
rtibia 96.973
rfoot -39.3204 -11.7337
rtoes -7.52206
lfemur -39.5465 3.96714 -14.1398
ltibia 99.2493
lfoot -39.7451 -10.5945
ltoes -6.78443
